<svg xmlns="http://www.w3.org/2000/svg" width="79" height="20" viewBox="0 0 79 20" fill="none">
  <g clip-path="url(#clip0_1_1653)">
    <path d="M6.66461 18.7505H1.32002V4.30493L6.66916 9.65407L6.66461 18.7505Z" fill="#7B7E7D"/>
    <path d="M1.32017 0.890625V2.93923L12.2461 13.8651L16.0872 10.024L6.98229 0.890625H1.32017Z" fill="#7B7E7D"/>
    <path d="M23.2859 0.890625V18.759H17.8514V8.31682L16.7986 9.36958L13.0428 5.6138L17.766 0.890625H23.2859Z" fill="#7B7E7D"/>
    <path d="M40.2167 12.4797L40.2087 9.18769L38.5938 11.8998H38.0213L36.4143 9.25826V12.4803H35.2227V6.99341H36.2731L38.3269 10.4032L40.3493 6.99341H41.3918L41.4077 12.4803H40.2167V12.4797Z" fill="#7B7E7D"/>
    <path d="M44.3243 6.99324V12.4801H43.0542V8.01186H41.957V6.99268H44.3243V6.99324Z" fill="#7B7E7D"/>
    <path d="M48.8008 8.01227V9.46222H51.3405V10.4814H48.8008V12.4805H47.5312V6.99365H51.678V8.01283H48.8008V8.01227Z" fill="#7B7E7D"/>
    <path d="M52.2781 7.47923C52.137 7.34891 52.0664 7.18673 52.0664 6.99325C52.0664 6.79977 52.137 6.63816 52.2781 6.50728C52.4192 6.37696 52.6019 6.31152 52.8267 6.31152C53.0514 6.31152 53.2341 6.37412 53.3752 6.49988C53.5164 6.62564 53.5869 6.78213 53.5869 6.96992C53.5869 7.17365 53.5164 7.34209 53.3752 7.47525C53.2341 7.6084 53.0514 7.67498 52.8267 7.67498C52.6025 7.67498 52.4192 7.60954 52.2781 7.47923ZM52.2155 8.26282H53.4384V12.4801H52.2155V8.26282Z" fill="#7B7E7D"/>
    <path d="M58.2477 8.67073C58.5692 8.98428 58.7297 9.4492 58.7297 10.0661V12.4806H57.5068V10.2544C57.5068 9.91981 57.4334 9.67056 57.2872 9.50553C57.1409 9.34108 56.9292 9.25856 56.6521 9.25856C56.3437 9.25856 56.0978 9.35416 55.9152 9.5448C55.7319 9.73543 55.6409 10.0188 55.6409 10.3955V12.4806H54.418V8.26328H55.5857V8.75722C55.7479 8.57968 55.9487 8.44253 56.1894 8.34579C56.4296 8.24906 56.6936 8.20069 56.981 8.20069C57.504 8.20012 57.9262 8.35718 58.2477 8.67073Z" fill="#7B7E7D"/>
    <path d="M62.8866 8.66708C63.2366 8.97779 63.4118 9.44726 63.4118 10.0744V12.4809H62.2675V11.9557C62.0376 12.3477 61.6091 12.5435 60.982 12.5435C60.6582 12.5435 60.3771 12.4889 60.1392 12.379C59.9013 12.2692 59.7198 12.1178 59.5946 11.9244C59.4694 11.7309 59.4062 11.5118 59.4062 11.266C59.4062 10.8739 59.5536 10.566 59.849 10.3412C60.1443 10.1165 60.6001 10.0044 61.217 10.0044H62.1889C62.1889 9.73805 62.1076 9.53262 61.946 9.38922C61.7838 9.24524 61.5408 9.17354 61.217 9.17354C60.9922 9.17354 60.7714 9.20882 60.5546 9.27939C60.3378 9.34995 60.1534 9.44555 60.0021 9.56562L59.5633 8.71147C59.7932 8.54986 60.0686 8.42409 60.3901 8.33532C60.7117 8.24655 61.0417 8.20216 61.382 8.20216C62.0347 8.20046 62.5361 8.35581 62.8866 8.66708ZM61.8441 11.575C62.0063 11.4782 62.1212 11.336 62.1889 11.1476V10.7163H61.3501C60.8482 10.7163 60.5979 10.8807 60.5979 11.2102C60.5979 11.3667 60.6593 11.4913 60.7822 11.5824C60.9051 11.674 61.0736 11.7195 61.2875 11.7195C61.4964 11.7201 61.6819 11.6717 61.8441 11.575Z" fill="#7B7E7D"/>
    <path d="M68.1891 8.67048C68.5106 8.98403 68.6711 9.44895 68.6711 10.0658V12.4803H67.4482V10.2542C67.4482 9.91956 67.3748 9.67032 67.2285 9.50529C67.0823 9.34083 66.8706 9.25832 66.5934 9.25832C66.285 9.25832 66.0392 9.35392 65.8565 9.54455C65.6733 9.73519 65.5822 10.0186 65.5822 10.3953V12.4803H64.3593V8.26304H65.527V8.75698C65.6892 8.57943 65.8901 8.44229 66.1308 8.34555C66.3709 8.24881 66.635 8.20044 66.9224 8.20044C67.4459 8.19987 67.8676 8.35693 68.1891 8.67048Z" fill="#7B7E7D"/>
    <path d="M70.492 12.265C70.134 12.0795 69.854 11.8222 69.6532 11.4928C69.4517 11.1633 69.3516 10.79 69.3516 10.3717C69.3516 9.95346 69.4523 9.58016 69.6532 9.25068C69.854 8.92119 70.134 8.66398 70.492 8.47846C70.8499 8.29295 71.2534 8.2002 71.7029 8.2002C72.1468 8.2002 72.5349 8.29295 72.8672 8.47846C73.199 8.66398 73.4408 8.92916 73.5922 9.27401L72.6436 9.78331C72.4239 9.39692 72.1081 9.20344 71.6949 9.20344C71.3763 9.20344 71.1122 9.30815 70.9034 9.51699C70.6945 9.72584 70.5898 10.0109 70.5898 10.3711C70.5898 10.7319 70.6945 11.0165 70.9034 11.2253C71.1122 11.4341 71.3763 11.5389 71.6949 11.5389C72.1132 11.5389 72.429 11.3454 72.6436 10.959L73.5922 11.4763C73.4408 11.8109 73.199 12.0721 72.8672 12.2599C72.5354 12.4482 72.1473 12.5421 71.7029 12.5421C71.2534 12.5432 70.8499 12.4505 70.492 12.265Z" fill="#7B7E7D"/>
    <path d="M78.1911 10.7166H75.001C75.0584 10.9778 75.1944 11.1843 75.4084 11.3357C75.6224 11.4871 75.8893 11.5633 76.2079 11.5633C76.4276 11.5633 76.6222 11.5309 76.7918 11.4654C76.9614 11.4 77.1196 11.297 77.2658 11.1559L77.9163 11.8615C77.519 12.3162 76.9392 12.5432 76.1761 12.5432C75.7003 12.5432 75.2798 12.4505 74.9139 12.265C74.548 12.0795 74.2657 11.8222 74.0671 11.4928C73.8685 11.1633 73.7695 10.79 73.7695 10.3717C73.7695 9.95915 73.8674 9.58642 74.0637 9.25466C74.2595 8.9229 74.5287 8.66398 74.8712 8.47846C75.2132 8.29295 75.5962 8.2002 76.0196 8.2002C76.4322 8.2002 76.806 8.28897 77.1406 8.46651C77.4752 8.64406 77.7376 8.899 77.9282 9.23076C78.1188 9.56252 78.2144 9.94777 78.2144 10.3871C78.2144 10.403 78.2065 10.5128 78.1911 10.7166ZM75.3299 9.3605C75.1415 9.51699 75.0266 9.73153 74.985 10.003H77.0621C77.02 9.73665 76.9056 9.52382 76.7172 9.36392C76.5289 9.20458 76.299 9.12491 76.0275 9.12491C75.7504 9.12491 75.5182 9.20344 75.3299 9.3605Z" fill="#7B7E7D"/>
    <path d="M29.5741 0.890137H29.1758V18.7585H29.5741V0.890137Z" fill="#7B7E7D"/>
  </g>
  <defs>
    <clipPath id="clip0_1_1653">
      <rect width="78.3398" height="18.8534" fill="white" transform="translate(0.574219 0.439941)"/>
    </clipPath>
  </defs>
</svg>