<svg xmlns="http://www.w3.org/2000/svg" width="117" height="19" viewBox="0 0 117 19" fill="none">
  <g clip-path="url(#clip0_1_3149)">
    <path fill-rule="evenodd" clip-rule="evenodd" d="M15.5 18.2493H17.3276V18.0596C17.3276 15.644 16.3616 13.4524 14.8021 11.8698C13.2426 10.2874 11.0828 9.30713 8.70571 9.30713C6.3478 9.30713 4.21127 10.2666 2.65447 11.8218C4.56913 6.11656 9.95278 2.01328 16.2803 2.01328C20.2449 2.01328 23.8369 3.61917 26.4369 6.22538C29.0389 8.83363 30.6492 12.4328 30.6492 16.4139V18.2493H32.4767V16.4139C32.4767 11.9338 30.6623 7.87867 27.7334 4.94275C24.8046 2.00682 20.7514 0.193359 16.2803 0.193359C7.33489 0.193359 0.0806917 7.45694 0.0806913 16.4139L0.0806912 17.9849C0.0804861 18.0097 0.0803833 18.0347 0.0803833 18.0596V18.2493H1.90827V17.9928C1.94353 14.162 5.00424 11.127 8.70571 11.127C10.5674 11.127 12.2642 11.8928 13.4976 13.1445C14.7315 14.3967 15.5 16.1343 15.5 18.0596V18.2493Z" fill="#5DCA7B"/>
    <path d="M116.794 14.649C116.442 15.8006 115.763 16.7851 114.757 17.6028C113.752 18.4206 112.336 18.8294 110.509 18.8294C109.235 18.8294 108.113 18.5456 107.141 17.9782C106.169 17.3942 105.415 16.5848 104.879 15.5502C104.359 14.5155 104.099 13.314 104.099 11.9456C104.099 10.5439 104.359 9.32565 104.879 8.29101C105.398 7.23967 106.136 6.43031 107.091 5.86292C108.063 5.27885 109.202 4.98682 110.509 4.98682C111.766 4.98682 112.873 5.25382 113.828 5.78783C114.799 6.32185 115.554 7.10617 116.09 8.14082C116.643 9.15877 116.919 10.377 116.919 11.7955C116.919 11.9623 116.903 12.2294 116.869 12.5965H107.091C107.124 13.7812 107.451 14.7492 108.071 15.5002C108.691 16.2344 109.504 16.6015 110.509 16.6015C111.464 16.6015 112.202 16.3763 112.722 15.9257C113.241 15.4584 113.601 14.9244 113.802 14.3236L116.794 14.649ZM110.509 7.21464C109.52 7.21464 108.733 7.53171 108.146 8.16585C107.577 8.78329 107.242 9.55928 107.141 10.4938H113.903C113.802 9.55928 113.459 8.78329 112.873 8.16585C112.303 7.53171 111.515 7.21464 110.509 7.21464Z" fill="white"/>
    <path d="M102.461 0.406738V18.5297H99.4945V0.406738H102.461Z" fill="white"/>
    <path d="M91.901 4.98755C93.0406 4.98755 94.0628 5.27959 94.9677 5.86366C95.8727 6.43104 96.5765 7.2404 97.0792 8.29173C97.5987 9.32638 97.8585 10.5362 97.8585 11.9214C97.8585 13.2897 97.5987 14.4996 97.0792 15.5509C96.5765 16.5856 95.8727 17.395 94.9677 17.979C94.0628 18.5464 93.0322 18.8301 91.8759 18.8301C90.9542 18.8301 90.1331 18.6549 89.4125 18.3044C88.6918 17.954 88.1472 17.4617 87.7786 16.8276H87.678V18.5297H84.8878V0.406738H87.8289V6.81486H87.9294C88.2981 6.24748 88.826 5.80524 89.513 5.48818C90.2001 5.15443 90.9961 4.98755 91.901 4.98755ZM91.2223 16.5272C92.3452 16.5272 93.2249 16.1184 93.8617 15.3006C94.5153 14.4829 94.8421 13.3564 94.8421 11.9214C94.8421 10.4862 94.5153 9.35976 93.8617 8.54205C93.2249 7.72435 92.3452 7.31549 91.2223 7.31549C90.1331 7.31549 89.2616 7.72435 88.6081 8.54205C87.9713 9.35976 87.6529 10.4862 87.6529 11.9214C87.6529 13.3564 87.9713 14.4829 88.6081 15.3006C89.2616 16.1184 90.1331 16.5272 91.2223 16.5272Z" fill="white"/>
    <path d="M80.0874 16.7767C79.1154 18.1451 77.7245 18.8293 75.9147 18.8293C74.5907 18.8293 73.4763 18.4288 72.5714 17.6278C71.6832 16.8267 71.2392 15.6336 71.2392 14.0482V5.28711H74.1802V13.2221C74.1802 14.357 74.4064 15.1747 74.859 15.6753C75.3282 16.176 76.0236 16.4263 76.9453 16.4263C77.4815 16.4263 77.9843 16.276 78.4535 15.9756C78.9395 15.6753 79.3249 15.2331 79.6098 14.649C79.8947 14.0649 80.0372 13.364 80.0372 12.5463V5.28711H82.9782V18.5289H80.188V16.7767H80.0874Z" fill="white"/>
    <path d="M63.0629 4.98682C64.3869 4.98682 65.5432 5.27051 66.5319 5.83789C67.5206 6.40528 68.2832 7.21464 68.8194 8.26598C69.3556 9.31731 69.6238 10.5355 69.6238 11.9206C69.6238 13.3057 69.3556 14.5239 68.8194 15.5752C68.2832 16.6099 67.5206 17.4109 66.5319 17.9782C65.5432 18.5456 64.3869 18.8294 63.0629 18.8294C61.7223 18.8294 60.5493 18.5456 59.5438 17.9782C58.5551 17.4109 57.7925 16.6099 57.2563 15.5752C56.7201 14.5239 56.4519 13.3057 56.4519 11.9206C56.4519 10.5355 56.7201 9.31731 57.2563 8.26598C57.7925 7.21464 58.5551 6.40528 59.5438 5.83789C60.5493 5.27051 61.7223 4.98682 63.0629 4.98682ZM63.0629 16.5264C64.1523 16.5264 65.0154 16.1259 65.6521 15.3249C66.2889 14.5072 66.6073 13.3725 66.6073 11.9206C66.6073 10.4688 66.2889 9.33399 65.6521 8.51629C65.0154 7.69859 64.1523 7.28974 63.0629 7.28974C61.957 7.28974 61.0772 7.69859 60.4236 8.51629C59.7868 9.33399 59.4684 10.4688 59.4684 11.9206C59.4684 13.3725 59.7868 14.5072 60.4236 15.3249C61.0605 16.1259 61.9402 16.5264 63.0629 16.5264Z" fill="white"/>
    <path d="M46.3898 0.65625C48.1326 0.65625 49.6576 0.990007 50.9648 1.65752C52.2719 2.32503 53.2858 3.3263 54.0064 4.66133C54.727 5.99635 55.0872 7.6401 55.0872 9.59258C55.0872 11.545 54.727 13.1887 54.0064 14.5238C53.2858 15.8588 52.2719 16.8601 50.9648 17.5277C49.6576 18.1951 48.1326 18.5289 46.3898 18.5289H39.4269V0.65625H46.3898ZM45.9625 15.9507C47.8562 15.9507 49.3058 15.4249 50.3113 14.3736C51.3335 13.3056 51.8446 11.7119 51.8446 9.59258C51.8446 7.47322 51.3335 5.88788 50.3113 4.83655C49.3058 3.76853 47.8562 3.23452 45.9625 3.23452H42.5941V15.9507H45.9625Z" fill="white"/>
  </g>
  <defs>
    <clipPath id="clip0_1_3149">
      <rect width="117" height="18.7804" fill="white" transform="translate(0 0.121094)"/>
    </clipPath>
  </defs>
</svg>