<svg xmlns="http://www.w3.org/2000/svg" width="118" height="20" viewBox="0 0 118 20" fill="none">
  <g clip-path="url(#clip0_1_3044)">
    <path fill-rule="evenodd" clip-rule="evenodd" d="M16.1172 18.738H17.9447V18.5484C17.9447 16.1327 16.9787 13.9411 15.4193 12.3586C13.8598 10.7762 11.7 9.7959 9.3229 9.7959C6.96499 9.7959 4.82846 10.7553 3.27165 12.3106C5.18632 6.60533 10.57 2.50205 16.8975 2.50205C20.8621 2.50205 24.4541 4.10794 27.0541 6.71415C29.6561 9.3224 31.2663 12.9216 31.2663 16.9027V18.738H33.0939V16.9027C33.0939 12.4226 31.2795 8.36744 28.3506 5.43152C25.4217 2.49559 21.3686 0.682129 16.8975 0.682129C7.95207 0.682128 0.697879 7.94571 0.697879 16.9027L0.697879 18.4737C0.697674 18.4985 0.697571 18.5234 0.697571 18.5484V18.738H2.52546V18.4816C2.56072 14.6508 5.62143 11.6158 9.3229 11.6158C11.1846 11.6158 12.8814 12.3816 14.1148 13.6333C15.3487 14.8854 16.1172 16.6231 16.1172 18.5484V18.738Z" fill="#5DCA7B"/>
    <path d="M117.411 15.1378C117.059 16.2893 116.38 17.2739 115.374 18.0916C114.369 18.9093 112.953 19.3182 111.126 19.3182C109.852 19.3182 108.73 19.0344 107.758 18.467C106.786 17.883 106.032 17.0736 105.496 16.0389C104.976 15.0043 104.717 13.8028 104.717 12.4344C104.717 11.0326 104.976 9.81442 105.496 8.77978C106.015 7.72844 106.753 6.91908 107.708 6.35169C108.68 5.76762 109.819 5.47559 111.126 5.47559C112.384 5.47559 113.49 5.74259 114.445 6.2766C115.416 6.81062 116.171 7.59494 116.707 8.62959C117.26 9.64754 117.536 10.8658 117.536 12.2843C117.536 12.4511 117.52 12.7181 117.487 13.0852H107.708C107.741 14.27 108.068 15.238 108.688 15.989C109.308 16.7231 110.121 17.0903 111.126 17.0903C112.081 17.0903 112.82 16.8651 113.339 16.4144C113.858 15.9472 114.218 15.4131 114.419 14.8124L117.411 15.1378ZM111.126 7.70341C110.137 7.70341 109.351 8.02048 108.763 8.65462C108.194 9.27206 107.859 10.0481 107.758 10.9826H114.521C114.419 10.0481 114.076 9.27206 113.49 8.65462C112.92 8.02048 112.132 7.70341 111.126 7.70341Z" fill="#163421"/>
    <path d="M103.078 0.895508V19.0185H100.112V0.895508H103.078Z" fill="#163421"/>
    <path d="M92.5182 5.47632C93.6578 5.47632 94.68 5.76836 95.5849 6.35243C96.4898 6.91981 97.1937 7.72917 97.6964 8.7805C98.2159 9.81515 98.4757 11.025 98.4757 12.4101C98.4757 13.7785 98.2159 14.9883 97.6964 16.0397C97.1937 17.0744 96.4898 17.8838 95.5849 18.4678C94.68 19.0352 93.6494 19.3188 92.4931 19.3188C91.5714 19.3188 90.7503 19.1437 90.0297 18.7932C89.309 18.4427 88.7644 17.9505 88.3958 17.3164H88.2952V19.0185H85.505V0.895508H88.4461V7.30363H88.5466C88.9153 6.73625 89.4432 6.29401 90.1302 5.97695C90.8173 5.6432 91.6133 5.47632 92.5182 5.47632ZM91.8395 17.016C92.9624 17.016 93.8421 16.6071 94.4789 15.7894C95.1325 14.9717 95.4593 13.8452 95.4593 12.4101C95.4593 10.975 95.1325 9.84853 94.4789 9.03082C93.8421 8.21312 92.9624 7.80426 91.8395 7.80426C90.7503 7.80426 89.8788 8.21312 89.2253 9.03082C88.5885 9.84853 88.27 10.975 88.27 12.4101C88.27 13.8452 88.5885 14.9717 89.2253 15.7894C89.8788 16.6071 90.7503 17.016 91.8395 17.016Z" fill="#163421"/>
    <path d="M80.7046 17.2655C79.7326 18.6339 78.3417 19.3181 76.5318 19.3181C75.2079 19.3181 74.0935 18.9175 73.1886 18.1166C72.3004 17.3155 71.8564 16.1224 71.8564 14.5369V5.77588H74.7974V13.7109C74.7974 14.8457 75.0236 15.6634 75.4762 16.164C75.9453 16.6647 76.6408 16.915 77.5625 16.915C78.0987 16.915 78.6015 16.7648 79.0707 16.4644C79.5567 16.164 79.9421 15.7218 80.227 15.1378C80.5119 14.5537 80.6544 13.8527 80.6544 13.035V5.77588H83.5953V19.0177H80.8052V17.2655H80.7046Z" fill="#163421"/>
    <path d="M63.6801 5.47559C65.0041 5.47559 66.1603 5.75928 67.1491 6.32666C68.1378 6.89405 68.9003 7.70341 69.4366 8.75475C69.9728 9.80608 70.241 11.0243 70.241 12.4093C70.241 13.7945 69.9728 15.0127 69.4366 16.064C68.9003 17.0986 68.1378 17.8997 67.1491 18.467C66.1603 19.0344 65.0041 19.3182 63.6801 19.3182C62.3395 19.3182 61.1665 19.0344 60.161 18.467C59.1723 17.8997 58.4097 17.0986 57.8735 16.064C57.3373 15.0127 57.0691 13.7945 57.0691 12.4093C57.0691 11.0243 57.3373 9.80608 57.8735 8.75475C58.4097 7.70341 59.1723 6.89405 60.161 6.32666C61.1665 5.75928 62.3395 5.47559 63.6801 5.47559ZM63.6801 17.0152C64.7695 17.0152 65.6325 16.6147 66.2692 15.8137C66.9061 14.996 67.2245 13.8613 67.2245 12.4093C67.2245 10.9575 66.9061 9.82276 66.2692 9.00506C65.6325 8.18736 64.7695 7.77851 63.6801 7.77851C62.5741 7.77851 61.6944 8.18736 61.0408 9.00506C60.404 9.82276 60.0856 10.9575 60.0856 12.4093C60.0856 13.8613 60.404 14.996 61.0408 15.8137C61.6776 16.6147 62.5574 17.0152 63.6801 17.0152Z" fill="#163421"/>
    <path d="M47.007 1.14502C48.7498 1.14502 50.2748 1.47878 51.582 2.14629C52.8891 2.8138 53.903 3.81507 54.6236 5.1501C55.3441 6.48512 55.7044 8.12887 55.7044 10.0813C55.7044 12.0338 55.3441 13.6775 54.6236 15.0125C53.903 16.3476 52.8891 17.3489 51.582 18.0164C50.2748 18.6839 48.7498 19.0176 47.007 19.0176H40.0441V1.14502H47.007ZM46.5797 16.4394C48.4734 16.4394 49.923 15.9137 50.9285 14.8624C51.9507 13.7944 52.4618 12.2007 52.4618 10.0813C52.4618 7.96199 51.9507 6.37665 50.9285 5.32532C49.923 4.2573 48.4734 3.72329 46.5797 3.72329H43.2113V16.4394H46.5797Z" fill="#163421"/>
  </g>
  <defs>
    <clipPath id="clip0_1_3044">
      <rect width="117" height="18.7804" fill="white" transform="translate(0.617188 0.609863)"/>
    </clipPath>
  </defs>
</svg>