<svg xmlns="http://www.w3.org/2000/svg" width="13" height="12" viewBox="0 0 13 12" fill="none">
  <path fill-rule="evenodd" clip-rule="evenodd" d="M6.61719 3C6.94856 3 7.21719 3.26863 7.21719 3.6V5.4L9.01719 5.4C9.34856 5.4 9.61719 5.66863 9.61719 6C9.61719 6.33137 9.34856 6.6 9.01719 6.6H7.21719V8.4C7.21719 8.73137 6.94856 9 6.61719 9C6.28582 9 6.01719 8.73137 6.01719 8.4V6.6H4.21719C3.88582 6.6 3.61719 6.33137 3.61719 6C3.61719 5.66863 3.88582 5.4 4.21719 5.4L6.01719 5.4V3.6C6.01719 3.26863 6.28582 3 6.61719 3Z" fill="#7B7E7D"/>
</svg>