<svg xmlns="http://www.w3.org/2000/svg" width="123" height="17" viewBox="0 0 123 17" fill="none">
  <g clip-path="url(#clip0_1_1725)">
    <path fill-rule="evenodd" clip-rule="evenodd" d="M12.7641 1.36108C12.842 1.36354 12.9125 1.36844 12.9745 1.37642C13.1351 1.39666 13.1112 1.54078 13.0744 1.75605C12.1772 7.10833 11.7804 12.874 14.9432 15.6308C14.9763 15.6614 15.0223 15.7258 15.0069 15.7497C14.9916 15.773 14.8984 15.7608 14.8597 15.7583C13.3038 15.6608 7.0236 13.1647 7.29039 2.45153C7.29468 2.27981 7.31799 2.20131 7.57251 2.12648C8.42193 1.87932 11.1088 1.39788 12.4666 1.36108H12.7641ZM2.72866 6.75568C2.87708 6.65142 4.55691 5.82346 6.10181 5.27149C6.41092 5.17275 6.40907 5.49228 6.42379 5.57691C7.86689 13.8001 11.3946 14.8347 12.3869 15.6479C12.52 15.7369 12.3495 15.7694 12.1802 15.7614C5.04755 15.7841 2.90038 9.22483 2.50542 7.07398C2.46862 6.87588 2.58024 6.86055 2.72866 6.75568ZM0.447178 11.9724C0.812092 11.5247 1.87617 10.6274 2.31897 10.3337C2.45329 10.2447 2.55019 10.4502 2.66855 10.7299C3.14693 11.7559 3.8602 12.8347 4.56059 13.5449C5.96137 14.9641 7.49278 15.5063 7.57128 15.5688C7.69026 15.6669 7.68965 15.7442 7.46089 15.7528C2.61397 15.9331 0.633008 13.6406 0.302439 12.3122C0.266868 12.1681 0.298146 12.1527 0.445952 11.9724H0.447178Z" fill="#7B7E7D"/>
    <path d="M26.3694 1.18616L24.2413 9.74109L22.3143 1.18555H18.6406L22.2468 15.7361H25.5403L27.6917 7.20509L29.8199 15.7361H33.1133L36.7422 1.18677H33.1133L31.209 9.74171L29.1029 1.18616H26.3694ZM42.0006 12.0158C41.7989 12.7506 41.2389 13.0824 40.5226 13.0824C39.5137 13.0824 38.8869 12.3955 38.7747 11.1155H45.2941V10.1913C45.2941 7.01558 43.5462 4.8353 40.4551 4.8353C37.5419 4.8353 35.3917 7.11064 35.3917 10.4041C35.3917 13.722 37.4303 15.9728 40.522 15.9728C43.1432 15.9728 44.8905 14.4807 45.2493 12.0158H42.0006ZM40.4551 7.7264C41.3285 7.7264 41.8436 8.38999 41.889 9.26701H38.8415C39.066 8.27162 39.6265 7.7264 40.4551 7.7264ZM55.2676 15.7361V9.19648C55.2676 6.42436 53.6325 4.81261 50.7647 4.81261C48.1655 4.81261 46.4409 6.44767 46.1496 8.50897H49.4651C49.6221 8.0355 50.003 7.72701 50.6525 7.72701C51.5037 7.72701 51.8852 8.31946 51.8852 9.00697V9.69387C51.4817 9.38599 50.4961 9.10142 49.6669 9.10142C47.4713 9.10142 45.7908 10.4286 45.7908 12.4905C45.7908 14.7413 47.4713 15.9262 49.4651 15.9262C50.5409 15.9262 51.5485 15.5472 51.8846 15.1921V15.7367H55.2676V15.7361ZM51.8846 12.7506C51.6607 13.1768 51.056 13.4614 50.4065 13.4614C49.7117 13.4614 49.0174 13.1535 49.0174 12.4188C49.0174 11.7073 49.7117 11.3995 50.4059 11.3995C51.056 11.3995 51.6607 11.684 51.8846 12.1342V12.7506ZM59.7723 0.333058H56.2556V15.7361H59.7729V0.333058H59.7723ZM62.0108 12.063C62.0108 14.7646 63.3552 15.9495 65.7299 15.9495C66.5137 15.9495 67.2754 15.8073 67.6789 15.6184V12.466C67.325 12.6192 66.944 12.6999 66.5584 12.7033C65.8642 12.7033 65.4833 12.3476 65.4833 11.5184V7.96375H67.5894V5.07265H65.4833V2.13371H62.0108V5.07265H60.5321V7.96375H62.0108V12.063ZM68.3867 15.7361H71.904V9.29032C72.083 8.55619 72.6657 8.12934 73.3599 8.12934C74.256 8.12934 74.6816 8.76901 74.6816 9.64603V15.7361H78.1768V8.7457C78.1768 6.37591 76.8551 4.8353 74.6147 4.8353C73.4495 4.8353 72.4639 5.3333 71.904 5.99689V0.333058H68.3867V15.7361ZM85.7958 0.4042C85.3702 0.238609 84.8323 0.119629 84.1608 0.119629C81.6959 0.119629 80.24 1.73077 80.24 4.29007V5.07265H78.7392V7.96375H80.24V15.7361H83.7125V7.96375H85.6615V5.07265H83.7125V4.5035C83.7125 3.65101 84.1829 3.22416 84.9673 3.22416C85.2807 3.22416 85.5493 3.2953 85.7958 3.43759V0.4042ZM93.115 5.02481C92.9586 4.93036 92.5998 4.8353 92.1521 4.8353C91.1438 4.8353 90.3594 5.30938 89.8669 6.0202V5.07265H86.3496V15.7361H89.8669V9.48044C90.046 8.72179 90.6955 8.27162 91.659 8.27162C92.2189 8.27162 92.6893 8.36668 93.115 8.60281V5.02481ZM103.946 10.4047C103.946 7.11065 101.675 4.83591 98.6059 4.83591C95.559 4.83591 93.4535 7.11065 93.4535 10.4047C93.4535 13.6981 95.7466 15.9735 98.7935 15.9735C101.862 15.9735 103.946 13.6981 103.946 10.4047ZM100.309 10.4047C100.309 11.8735 99.7037 12.8928 98.6059 12.8928C97.5307 12.8928 96.926 11.8735 96.926 10.4041C96.926 8.93521 97.5307 7.8926 98.6059 7.8926C99.7037 7.8926 100.309 8.93521 100.309 10.4047ZM104.705 15.7361H108.222V9.29032C108.402 8.55619 108.984 8.12934 109.679 8.12934C110.575 8.12934 111.001 8.76901 111.001 9.64603V15.7361H114.496V8.7457C114.496 6.37591 113.174 4.8353 110.933 4.8353C109.769 4.8353 108.783 5.3333 108.222 5.99689V5.07265H104.705V15.7361ZM116.365 12.063C116.365 14.7646 117.71 15.9495 120.084 15.9495C120.869 15.9495 121.63 15.8073 122.033 15.6184V12.466C121.68 12.6192 121.299 12.6999 120.913 12.7033C120.219 12.7033 119.838 12.3476 119.838 11.5184V7.96375H121.944V5.07265H119.838V2.13371H116.365V5.07265H114.887V7.96375H116.365V12.063Z" fill="#7B7E7D"/>
  </g>
  <defs>
    <clipPath id="clip0_1_1725">
      <rect width="122.66" height="15.9458" fill="white" transform="translate(0.289062 0.120117)"/>
    </clipPath>
  </defs>
</svg>