<svg xmlns="http://www.w3.org/2000/svg" width="106" height="18" viewBox="0 0 106 18" fill="none">
  <g clip-path="url(#clip0_1_1718)">
    <path fill-rule="evenodd" clip-rule="evenodd" d="M14.5129 16.5844H16.1472V16.4148C16.1472 14.2546 15.2833 12.2948 13.8889 10.8797C12.4943 9.46465 10.563 8.58804 8.43724 8.58804C6.32873 8.58804 4.41818 9.44601 3.02604 10.8367C4.73819 5.73494 9.55242 2.06566 15.2107 2.06566C18.7559 2.06566 21.968 3.5017 24.2931 5.83225C26.6198 8.16463 28.0598 11.3831 28.0598 14.9432V16.5844H29.694V14.9432C29.694 10.9369 28.0715 7.31067 25.4524 4.68528C22.8333 2.05989 19.2089 0.438232 15.2107 0.438232C7.21141 0.438232 0.724488 6.93355 0.724488 14.9432L0.724488 16.348C0.724305 16.3702 0.724213 16.3925 0.724213 16.4148V16.5844H2.35876V16.355C2.3903 12.9294 5.12728 10.2155 8.43724 10.2155C10.102 10.2155 11.6193 10.9003 12.7223 12.0196C13.8257 13.1393 14.5129 14.6931 14.5129 16.4148V16.5844Z" fill="white"/>
    <path d="M105.093 13.3651C104.778 14.3948 104.171 15.2753 103.272 16.0065C102.373 16.7377 101.107 17.1033 99.4728 17.1033C98.3339 17.1033 97.3301 16.8496 96.4611 16.3422C95.5919 15.8199 94.9176 15.0961 94.438 14.1709C93.9735 13.2457 93.7413 12.1713 93.7413 10.9476C93.7413 9.69414 93.9735 8.60477 94.438 7.67956C94.9026 6.73942 95.562 6.01567 96.4162 5.5083C97.2857 4.986 98.304 4.72485 99.4728 4.72485C100.597 4.72485 101.587 4.96362 102.441 5.44115C103.309 5.91868 103.984 6.62004 104.464 7.54526C104.958 8.45555 105.205 9.54491 105.205 10.8134C105.205 10.9626 105.19 11.2014 105.161 11.5296H96.4162C96.4461 12.5891 96.7384 13.4547 97.2925 14.1262C97.8474 14.7828 98.5742 15.1111 99.4728 15.1111C100.327 15.1111 100.987 14.9097 101.451 14.5067C101.916 14.0889 102.238 13.6113 102.418 13.0741L105.093 13.3651ZM99.4728 6.71704C98.5887 6.71704 97.8851 7.00057 97.36 7.56764C96.8508 8.11978 96.551 8.81369 96.4611 9.64937H102.508C102.418 8.81369 102.111 8.11978 101.587 7.56764C101.077 7.00057 100.372 6.71704 99.4728 6.71704Z" fill="white"/>
    <path d="M92.2758 0.628418V16.8345H89.6234V0.628418H92.2758Z" fill="white"/>
    <path d="M82.8331 4.72472C83.8521 4.72472 84.7662 4.98587 85.5754 5.50816C86.3846 6.01554 87.014 6.73929 87.4636 7.67942C87.9281 8.60464 88.1604 9.68653 88.1604 10.9251C88.1604 12.1488 87.9281 13.2307 87.4636 14.1708C87.014 15.0961 86.3846 15.8198 85.5754 16.3421C84.7662 16.8495 83.8446 17.1031 82.8106 17.1031C81.9864 17.1031 81.2521 16.9465 80.6078 16.6331C79.9633 16.3197 79.4763 15.8795 79.1467 15.3124H79.0567V16.8345H76.5616V0.628418H79.1917V6.35876H79.2815C79.6112 5.85139 80.0833 5.45593 80.6976 5.1724C81.312 4.87395 82.0239 4.72472 82.8331 4.72472ZM82.2262 15.0438C83.2302 15.0438 84.0169 14.6782 84.5864 13.947C85.1708 13.2158 85.4631 12.2084 85.4631 10.9251C85.4631 9.64177 85.1708 8.63448 84.5864 7.90326C84.0169 7.17205 83.2302 6.80644 82.2262 6.80644C81.2521 6.80644 80.4728 7.17205 79.8884 7.90326C79.319 8.63448 79.0342 9.64177 79.0342 10.9251C79.0342 12.2084 79.319 13.2158 79.8884 13.947C80.4728 14.6782 81.2521 15.0438 82.2262 15.0438Z" fill="white"/>
    <path d="M72.2689 15.2678C71.3998 16.4914 70.156 17.1032 68.5376 17.1032C67.3537 17.1032 66.3571 16.7451 65.5479 16.0288C64.7537 15.3125 64.3566 14.2456 64.3566 12.8278V4.99341H66.9865V12.0892C66.9865 13.104 67.1888 13.8352 67.5935 14.2828C68.0131 14.7306 68.6349 14.9544 69.4592 14.9544C69.9387 14.9544 70.3883 14.82 70.8078 14.5514C71.2425 14.2828 71.5871 13.8874 71.8418 13.3651C72.0966 12.8428 72.224 12.216 72.224 11.4848V4.99341H74.854V16.8346H72.3589V15.2678H72.2689Z" fill="white"/>
    <path d="M57.0451 4.72485C58.229 4.72485 59.263 4.97854 60.1472 5.48591C61.0313 5.99329 61.7132 6.71704 62.1927 7.65718C62.6722 8.59731 62.912 9.68667 62.912 10.9252C62.912 12.1638 62.6722 13.2532 62.1927 14.1933C61.7132 15.1185 61.0313 15.8349 60.1472 16.3422C59.263 16.8496 58.229 17.1033 57.0451 17.1033C55.8463 17.1033 54.7973 16.8496 53.8982 16.3422C53.0141 15.8349 52.3322 15.1185 51.8527 14.1933C51.3732 13.2532 51.1333 12.1638 51.1333 10.9252C51.1333 9.68667 51.3732 8.59731 51.8527 7.65718C52.3322 6.71704 53.0141 5.99329 53.8982 5.48591C54.7973 4.97854 55.8463 4.72485 57.0451 4.72485ZM57.0451 15.0439C58.0193 15.0439 58.791 14.6858 59.3604 13.9695C59.9298 13.2383 60.2146 12.2236 60.2146 10.9252C60.2146 9.62698 59.9298 8.61223 59.3604 7.88102C58.791 7.14981 58.0193 6.7842 57.0451 6.7842C56.0561 6.7842 55.2694 7.14981 54.685 7.88102C54.1155 8.61223 53.8308 9.62698 53.8308 10.9252C53.8308 12.2236 54.1155 13.2383 54.685 13.9695C55.2544 14.6858 56.0412 15.0439 57.0451 15.0439Z" fill="white"/>
    <path d="M42.1356 0.852539C43.6941 0.852539 45.0577 1.15099 46.2267 1.74791C47.3955 2.34481 48.3022 3.24018 48.9465 4.434C49.5909 5.62782 49.9131 7.09771 49.9131 8.84368C49.9131 10.5896 49.5909 12.0595 48.9465 13.2533C48.3022 14.4471 47.3955 15.3425 46.2267 15.9395C45.0577 16.5364 43.6941 16.8348 42.1356 16.8348H35.9091V0.852539H42.1356ZM41.7535 14.5293C43.4469 14.5293 44.7431 14.0591 45.6423 13.1191C46.5564 12.164 47.0134 10.7388 47.0134 8.84368C47.0134 6.94849 46.5564 5.53083 45.6423 4.59069C44.7431 3.63564 43.4469 3.15811 41.7535 3.15811H38.7414V14.5293H41.7535Z" fill="white"/>
  </g>
  <defs>
    <clipPath id="clip0_1_1718">
      <rect width="104.625" height="16.7941" fill="white" transform="translate(0.652344 0.373535)"/>
    </clipPath>
  </defs>
</svg>