<svg xmlns="http://www.w3.org/2000/svg" width="22" height="21" viewBox="0 0 22 21" fill="none">
  <path d="M0.4375 10.5C0.4375 4.70101 5.13851 0 10.9375 0V0C16.7365 0 21.4375 4.70101 21.4375 10.5V10.5C21.4375 16.299 16.7365 21 10.9375 21V21C5.13851 21 0.4375 16.299 0.4375 10.5V10.5Z" fill="#F26625"/>
  <path d="M10.2378 12.7844C10.2373 12.2036 10.0936 11.6319 9.81919 11.12L7.17619 6.1886C6.91459 5.7005 7.2682 5.10978 7.82199 5.10978V5.10978C8.10125 5.10978 8.35623 5.26854 8.47948 5.51914L10.264 9.14777C10.3391 9.30048 10.398 9.46989 10.5184 9.59023V9.59023C10.5842 9.65603 10.5882 9.72183 10.6464 9.84489C10.6543 9.86151 10.6652 9.87647 10.6782 9.88947L10.6971 9.90837C10.7174 9.92859 10.7287 9.95602 10.7287 9.98461V9.98461C10.7287 10.0013 10.7327 10.0179 10.7399 10.033C10.795 10.1499 10.802 10.2185 10.8563 10.3346C10.8645 10.3519 10.8754 10.366 10.8866 10.3816V10.3816C10.9634 10.4891 11.0686 10.4975 11.1324 10.3818C11.1903 10.2769 11.2504 10.1649 11.2888 10.0101C11.3589 9.79973 11.4991 9.59023 11.6393 9.3799L13.5542 5.48631C13.6675 5.25581 13.9021 5.10978 14.1589 5.10978V5.10978C14.667 5.10978 14.9924 5.65066 14.7543 6.09953L12.0453 11.2068C11.7793 11.7084 11.6402 12.2676 11.6402 12.8354V15.6108C11.6402 15.9974 11.3267 16.3109 10.94 16.3109V16.3109C10.5536 16.3109 10.2402 15.9978 10.2399 15.6113L10.2378 12.7844Z" fill="white"/>
</svg>